# xmcd CD database file
#
# Track frame offsets:
#	150
#	15967
#	31812
#	48836
#	65566
#	81374
#	96532
#	113422
#	125440
#	137994
#	151844
#	169630
#
# Disc length: 2633 seconds
#
# Revision: 0
# Processed by: cddbd v1.5.2PL0 Copyright (c) Steve Scherf et al.
# Submitted via: CDex 1.70beta2
#
DISCID=900a470c
DTITLE=Catherine Britt - Little Wildflower
DYEAR=2008
DGENRE=Country
TTITLE0=Little Wildlower
TTITLE1=Not Your Cinderella
TTITLE2=What I Did Last Night
TTITLE3=Dirt Cheap
TTITLE4=If Only He Were You
TTITLE5=You Run
TTITLE6=That Ain't Me
TTITLE7=Over The Rainbow
TTITLE8=Lucky Girl
TTITLE9=You're The One I Love
TTITLE10=Drive In Movie
TTITLE11=Bruised
EXTD=YEAR: 2008
EXTT0=
EXTT1=
EXTT2=
EXTT3=
EXTT4=
EXTT5=
EXTT6=
EXTT7=
EXTT8=
EXTT9=
EXTT10=
EXTT11=
PLAYORDER=
